<svg width="180" height="81" viewBox="0 0 180 81" fill="none" xmlns="http://www.w3.org/2000/svg">
<g clip-path="url(#clip0_1_2)">
<path d="M23.307 57.88C23.547 58.648 23.667 59.664 23.667 60.928C23.667 62.208 23.563 63.2 23.355 63.904C23.067 64.928 22.539 65.736 21.771 66.328C21.019 66.904 20.067 67.192 18.915 67.192C18.291 67.192 17.715 67.072 17.187 66.832C16.659 66.576 16.219 66.216 15.867 65.752C15.835 65.72 15.803 65.712 15.771 65.728C15.755 65.728 15.747 65.744 15.747 65.776V71.416C15.747 71.576 15.667 71.656 15.507 71.656H14.283C14.123 71.656 14.043 71.576 14.043 71.416V55.096C14.043 54.936 14.123 54.856 14.283 54.856H15.507C15.667 54.856 15.747 54.936 15.747 55.096V56.104C15.747 56.136 15.755 56.16 15.771 56.176C15.803 56.176 15.835 56.16 15.867 56.128C16.219 55.664 16.651 55.304 17.163 55.048C17.691 54.792 18.275 54.664 18.915 54.664C20.035 54.664 20.971 54.952 21.723 55.528C22.491 56.104 23.019 56.888 23.307 57.88ZM21.411 63.952C21.587 63.6 21.715 63.208 21.795 62.776C21.891 62.328 21.939 61.712 21.939 60.928C21.939 60.176 21.907 59.592 21.843 59.176C21.779 58.744 21.667 58.36 21.507 58.024C21.315 57.448 20.971 56.992 20.475 56.656C19.995 56.32 19.419 56.152 18.747 56.152C18.107 56.152 17.571 56.32 17.139 56.656C16.707 56.992 16.387 57.44 16.179 58C16.035 58.32 15.931 58.696 15.867 59.128C15.803 59.56 15.771 60.16 15.771 60.928C15.771 61.696 15.803 62.304 15.867 62.752C15.931 63.184 16.043 63.568 16.203 63.904C16.395 64.448 16.707 64.888 17.139 65.224C17.587 65.544 18.115 65.704 18.723 65.704C19.363 65.704 19.915 65.544 20.379 65.224C20.859 64.904 21.203 64.48 21.411 63.952ZM40.2212 55.096C40.2212 54.936 40.3012 54.856 40.4612 54.856H41.6852C41.8452 54.856 41.9252 54.936 41.9252 55.096V66.76C41.9252 66.92 41.8452 67 41.6852 67H40.4612C40.3012 67 40.2212 66.92 40.2212 66.76V65.728C40.2212 65.696 40.2052 65.672 40.1732 65.656C40.1412 65.64 40.1172 65.648 40.1012 65.68C39.4292 66.672 38.3652 67.168 36.9092 67.168C36.1412 67.168 35.4292 67.016 34.7732 66.712C34.1332 66.392 33.6212 65.936 33.2372 65.344C32.8692 64.752 32.6852 64.04 32.6852 63.208V55.096C32.6852 54.936 32.7652 54.856 32.9252 54.856H34.1492C34.3092 54.856 34.3892 54.936 34.3892 55.096V62.704C34.3892 63.616 34.6452 64.344 35.1572 64.888C35.6692 65.416 36.3652 65.68 37.2452 65.68C38.1572 65.68 38.8772 65.408 39.4052 64.864C39.9492 64.32 40.2212 63.6 40.2212 62.704V55.096ZM60.8404 57.952C61.0324 58.672 61.1284 59.664 61.1284 60.928C61.1284 62.24 61.0164 63.256 60.7924 63.976C60.4884 64.968 59.9604 65.752 59.2084 66.328C58.4564 66.904 57.5204 67.192 56.4004 67.192C55.7604 67.192 55.1764 67.064 54.6484 66.808C54.1204 66.552 53.6804 66.184 53.3284 65.704C53.3124 65.672 53.2884 65.664 53.2564 65.68C53.2244 65.68 53.2084 65.696 53.2084 65.728V66.76C53.2084 66.92 53.1284 67 52.9684 67H51.7444C51.5844 67 51.5044 66.92 51.5044 66.76V50.44C51.5044 50.28 51.5844 50.2 51.7444 50.2H52.9684C53.1284 50.2 53.2084 50.28 53.2084 50.44V56.104C53.2084 56.136 53.2164 56.16 53.2324 56.176C53.2644 56.176 53.2964 56.16 53.3284 56.128C53.6804 55.664 54.1204 55.304 54.6484 55.048C55.1764 54.792 55.7604 54.664 56.4004 54.664C57.5364 54.664 58.4884 54.96 59.2564 55.552C60.0244 56.128 60.5524 56.928 60.8404 57.952ZM58.9924 63.832C59.1524 63.496 59.2644 63.12 59.3284 62.704C59.3924 62.272 59.4244 61.68 59.4244 60.928C59.4244 60.144 59.3764 59.536 59.2804 59.104C59.2004 58.656 59.0644 58.256 58.8724 57.904C58.6644 57.376 58.3284 56.952 57.8644 56.632C57.4004 56.312 56.8484 56.152 56.2084 56.152C55.6004 56.152 55.0724 56.32 54.6244 56.656C54.1924 56.976 53.8804 57.408 53.6884 57.952C53.5284 58.288 53.4084 58.672 53.3284 59.104C53.2644 59.536 53.2324 60.144 53.2324 60.928C53.2324 61.696 53.2644 62.296 53.3284 62.728C53.4084 63.144 53.5204 63.52 53.6644 63.856C53.8724 64.416 54.1924 64.864 54.6244 65.2C55.0564 65.536 55.5924 65.704 56.2324 65.704C56.9044 65.704 57.4804 65.536 57.9604 65.2C58.4564 64.864 58.8004 64.408 58.9924 63.832ZM70.6059 67C70.4459 67 70.3659 66.92 70.3659 66.76V50.44C70.3659 50.28 70.4459 50.2 70.6059 50.2H71.8299C71.9899 50.2 72.0699 50.28 72.0699 50.44V66.76C72.0699 66.92 71.9899 67 71.8299 67H70.6059ZM82.8092 52.648C82.4252 52.648 82.1052 52.52 81.8492 52.264C81.5932 52.008 81.4652 51.688 81.4652 51.304C81.4652 50.904 81.5932 50.584 81.8492 50.344C82.1052 50.088 82.4252 49.96 82.8092 49.96C83.1932 49.96 83.5132 50.088 83.7692 50.344C84.0252 50.584 84.1532 50.904 84.1532 51.304C84.1532 51.688 84.0252 52.008 83.7692 52.264C83.5132 52.52 83.1932 52.648 82.8092 52.648ZM82.1372 66.976C81.9772 66.976 81.8972 66.896 81.8972 66.736V55.072C81.8972 54.912 81.9772 54.832 82.1372 54.832H83.3612C83.5212 54.832 83.6012 54.912 83.6012 55.072V66.736C83.6012 66.896 83.5212 66.976 83.3612 66.976H82.1372ZM97.5184 67.12C96.6224 67.12 95.8224 66.976 95.1184 66.688C94.4304 66.4 93.8944 66.016 93.5104 65.536C93.1424 65.056 92.9584 64.52 92.9584 63.928V63.64C92.9584 63.48 93.0384 63.4 93.1984 63.4H94.3504C94.5104 63.4 94.5904 63.48 94.5904 63.64V63.832C94.5904 64.36 94.8624 64.824 95.4064 65.224C95.9664 65.608 96.6624 65.8 97.4944 65.8C98.3264 65.8 98.9984 65.616 99.5104 65.248C100.022 64.864 100.278 64.384 100.278 63.808C100.278 63.408 100.142 63.08 99.8704 62.824C99.6144 62.568 99.3024 62.368 98.9344 62.224C98.5824 62.08 98.0304 61.896 97.2784 61.672C96.3824 61.416 95.6464 61.16 95.0704 60.904C94.4944 60.648 94.0064 60.296 93.6064 59.848C93.2224 59.384 93.0304 58.8 93.0304 58.096C93.0304 57.072 93.4304 56.256 94.2304 55.648C95.0304 55.04 96.0864 54.736 97.3984 54.736C98.2784 54.736 99.0544 54.88 99.7264 55.168C100.414 55.456 100.942 55.856 101.31 56.368C101.678 56.864 101.862 57.424 101.862 58.048V58.12C101.862 58.28 101.782 58.36 101.622 58.36H100.494C100.334 58.36 100.254 58.28 100.254 58.12V58.048C100.254 57.504 99.9904 57.048 99.4624 56.68C98.9504 56.312 98.2544 56.128 97.3744 56.128C96.5584 56.128 95.9024 56.296 95.4064 56.632C94.9104 56.952 94.6624 57.4 94.6624 57.976C94.6624 58.52 94.9024 58.936 95.3824 59.224C95.8624 59.512 96.6064 59.8 97.6144 60.088C98.5424 60.36 99.2944 60.616 99.8704 60.856C100.446 61.096 100.942 61.448 101.358 61.912C101.774 62.36 101.982 62.952 101.982 63.688C101.982 64.728 101.574 65.56 100.758 66.184C99.9424 66.808 98.8624 67.12 97.5184 67.12ZM115.889 54.688C117.169 54.688 118.185 55.064 118.937 55.816C119.705 56.568 120.089 57.576 120.089 58.84V66.76C120.089 66.92 120.009 67 119.849 67H118.625C118.465 67 118.385 66.92 118.385 66.76V59.176C118.385 58.296 118.113 57.576 117.569 57.016C117.041 56.456 116.353 56.176 115.505 56.176C114.625 56.176 113.913 56.448 113.369 56.992C112.825 57.536 112.553 58.248 112.553 59.128V66.76C112.553 66.92 112.473 67 112.313 67H111.089C110.929 67 110.849 66.92 110.849 66.76V50.44C110.849 50.28 110.929 50.2 111.089 50.2H112.313C112.473 50.2 112.553 50.28 112.553 50.44V56.128C112.553 56.16 112.561 56.184 112.577 56.2C112.609 56.216 112.633 56.208 112.649 56.176C113.353 55.184 114.433 54.688 115.889 54.688ZM130.699 52.648C130.315 52.648 129.995 52.52 129.739 52.264C129.483 52.008 129.355 51.688 129.355 51.304C129.355 50.904 129.483 50.584 129.739 50.344C129.995 50.088 130.315 49.96 130.699 49.96C131.083 49.96 131.403 50.088 131.659 50.344C131.915 50.584 132.043 50.904 132.043 51.304C132.043 51.688 131.915 52.008 131.659 52.264C131.403 52.52 131.083 52.648 130.699 52.648ZM130.027 66.976C129.867 66.976 129.787 66.896 129.787 66.736V55.072C129.787 54.912 129.867 54.832 130.027 54.832H131.251C131.411 54.832 131.491 54.912 131.491 55.072V66.736C131.491 66.896 131.411 66.976 131.251 66.976H130.027ZM146.464 54.688C147.744 54.688 148.76 55.064 149.512 55.816C150.28 56.568 150.664 57.576 150.664 58.84V66.76C150.664 66.92 150.584 67 150.424 67H149.2C149.04 67 148.96 66.92 148.96 66.76V59.176C148.96 58.296 148.688 57.576 148.144 57.016C147.616 56.456 146.928 56.176 146.08 56.176C145.2 56.176 144.488 56.448 143.944 56.992C143.4 57.536 143.128 58.248 143.128 59.128V66.76C143.128 66.92 143.048 67 142.888 67H141.664C141.504 67 141.424 66.92 141.424 66.76V55.096C141.424 54.936 141.504 54.856 141.664 54.856H142.888C143.048 54.856 143.128 54.936 143.128 55.096V56.128C143.128 56.16 143.136 56.184 143.152 56.2C143.184 56.216 143.208 56.208 143.224 56.176C143.928 55.184 145.008 54.688 146.464 54.688ZM167.609 55.096C167.609 54.936 167.689 54.856 167.849 54.856H169.073C169.233 54.856 169.313 54.936 169.313 55.096V66.592C169.313 68.384 168.793 69.696 167.753 70.528C166.729 71.36 165.313 71.776 163.505 71.776C163.137 71.776 162.857 71.768 162.665 71.752C162.505 71.736 162.425 71.648 162.425 71.488L162.473 70.384C162.473 70.304 162.497 70.24 162.545 70.192C162.593 70.16 162.649 70.152 162.713 70.168L163.361 70.192C164.849 70.192 165.929 69.896 166.601 69.304C167.273 68.728 167.609 67.808 167.609 66.544V65.656C167.609 65.624 167.593 65.608 167.561 65.608C167.545 65.592 167.521 65.6 167.489 65.632C166.753 66.592 165.705 67.072 164.345 67.072C163.305 67.072 162.377 66.792 161.561 66.232C160.761 65.672 160.225 64.88 159.953 63.856C159.761 63.2 159.665 62.224 159.665 60.928C159.665 60.224 159.681 59.632 159.713 59.152C159.761 58.672 159.849 58.24 159.977 57.856C160.265 56.896 160.785 56.128 161.537 55.552C162.289 54.96 163.193 54.664 164.249 54.664C165.673 54.664 166.753 55.136 167.489 56.08C167.521 56.112 167.545 56.12 167.561 56.104C167.593 56.088 167.609 56.064 167.609 56.032V55.096ZM167.489 63.328C167.537 63.088 167.569 62.792 167.585 62.44C167.601 62.088 167.609 61.576 167.609 60.904C167.609 60.088 167.601 59.544 167.585 59.272C167.569 58.984 167.529 58.72 167.465 58.48C167.337 57.808 167.017 57.256 166.505 56.824C166.009 56.376 165.377 56.152 164.609 56.152C163.857 56.152 163.217 56.368 162.689 56.8C162.177 57.232 161.817 57.792 161.609 58.48C161.449 58.992 161.369 59.792 161.369 60.88C161.369 62.048 161.449 62.856 161.609 63.304C161.769 63.976 162.113 64.536 162.641 64.984C163.185 65.416 163.841 65.632 164.609 65.632C165.393 65.632 166.033 65.416 166.529 64.984C167.041 64.552 167.361 64 167.489 63.328Z" fill="black"/>
<path d="M25.3046 16.992V21.852H21.2726V29.088C21.2726 29.952 21.4166 30.588 21.7046 30.996C21.9926 31.38 22.5206 31.572 23.2886 31.572H25.3046V35.784C24.7286 35.976 23.9846 36.132 23.0726 36.252C22.1606 36.372 21.3686 36.432 20.6966 36.432C18.5846 36.432 16.9526 36.048 15.8006 35.28C14.6726 34.512 14.1086 33.204 14.1086 31.356V21.852H11.4446V16.992H14.3966L15.9446 11.232H21.2726V16.992H25.3046ZM36.9447 16.524C37.4967 16.524 37.9887 16.596 38.4207 16.74C38.8527 16.86 39.0687 16.932 39.0687 16.956V22.968H36.7647C35.2767 22.968 34.1967 23.352 33.5247 24.12C32.8767 24.888 32.5527 26.028 32.5527 27.54V36H25.3887V16.992H31.2567L31.7247 19.872C32.1567 18.768 32.8407 17.94 33.7767 17.388C34.7127 16.812 35.7687 16.524 36.9447 16.524ZM53.1281 36L52.6601 33.12C51.9161 34.152 50.9321 34.968 49.7081 35.568C48.5081 36.144 47.2361 36.432 45.8921 36.432C43.6841 36.432 42.0281 35.82 40.9241 34.596C39.8201 33.372 39.2681 31.608 39.2681 29.304V16.992H46.4321V28.44C46.4321 29.256 46.6361 29.916 47.0441 30.42C47.4761 30.9 48.0761 31.14 48.8441 31.14C49.7321 31.14 50.4521 30.852 51.0041 30.276C51.5561 29.7 51.8321 28.992 51.8321 28.152V16.992H58.9961V36H53.1281ZM67.8518 9.468C68.3798 9.468 69.0398 9.54 69.8318 9.684C70.6238 9.804 71.2598 9.948 71.7398 10.116V14.328H70.0838C69.3158 14.328 68.7878 14.472 68.4998 14.76C68.2118 15.048 68.0678 15.54 68.0678 16.236V16.992H71.7398V21.852H68.0678V36H60.9038V21.852H58.2398V16.992H60.9038V16.2C60.9038 13.752 61.5038 12.024 62.7038 11.016C63.9038 9.984 65.6198 9.468 67.8518 9.468ZM78.388 9.468C78.868 9.468 79.456 9.54 80.152 9.684C80.848 9.804 81.412 9.948 81.844 10.116V14.328H80.548C79.78 14.328 79.264 14.472 79 14.76C78.736 15.048 78.604 15.54 78.604 16.236V16.992H81.844V21.852H78.604V36H71.44V21.852H68.992V16.992H71.44V16.2C71.44 13.752 72.04 12.024 73.24 11.016C74.44 9.984 76.156 9.468 78.388 9.468ZM83.392 36V9.9H90.556V36H83.392ZM101.464 16.56C104.944 16.56 107.596 17.376 109.42 19.008C111.268 20.64 112.192 23.136 112.192 26.496V27.72H97.9357C97.9357 29.088 98.2357 30.12 98.8357 30.816C99.4597 31.512 100.432 31.86 101.752 31.86C102.952 31.86 103.828 31.608 104.38 31.104C104.956 30.6 105.244 29.928 105.244 29.088H112.192C112.192 31.392 111.316 33.192 109.564 34.488C107.812 35.784 105.256 36.432 101.896 36.432C98.3677 36.432 95.6317 35.616 93.6877 33.984C91.7437 32.328 90.7717 29.832 90.7717 26.496C90.7717 23.232 91.7197 20.76 93.6157 19.08C95.5117 17.4 98.1277 16.56 101.464 16.56ZM101.752 21.132C99.4957 21.132 98.2357 22.2 97.9717 24.336H104.956C104.956 23.352 104.668 22.572 104.092 21.996C103.54 21.42 102.76 21.132 101.752 21.132ZM133.684 16.56C136.252 16.56 138.232 17.4 139.624 19.08C141.016 20.76 141.712 23.244 141.712 26.532C141.712 29.796 141.016 32.268 139.624 33.948C138.232 35.604 136.252 36.432 133.684 36.432C131.476 36.432 129.7 35.712 128.356 34.272V43.092H121.192V16.992H127.024L127.636 19.692C129.028 17.604 131.044 16.56 133.684 16.56ZM131.452 21.852C130.396 21.852 129.604 22.224 129.076 22.968C128.548 23.712 128.284 24.684 128.284 25.884V27.072C128.284 28.272 128.548 29.256 129.076 30.024C129.604 30.768 130.396 31.14 131.452 31.14C133.516 31.14 134.548 29.904 134.548 27.432V25.524C134.548 23.076 133.516 21.852 131.452 21.852ZM142.179 14.76V9.9H149.343V14.76H142.179ZM142.179 36V16.992H149.343V36H142.179ZM172.06 13.428C172.06 14.892 171.688 16.02 170.944 16.812C170.224 17.604 169.132 18.192 167.668 18.576C168.364 19.104 168.904 19.728 169.288 20.448C169.696 21.144 169.9 21.888 169.9 22.68C169.9 24.696 169.132 26.22 167.596 27.252C166.084 28.284 164.188 28.8 161.908 28.8H159.172C157.66 28.8 156.904 29.148 156.904 29.844C156.904 30.18 157.072 30.456 157.408 30.672C157.744 30.864 158.332 30.96 159.172 30.96H165.652C167.764 30.96 169.36 31.512 170.44 32.616C171.52 33.72 172.06 35.196 172.06 37.044C172.06 38.412 171.7 39.588 170.98 40.572C170.26 41.556 169.288 42.3 168.064 42.804C166.84 43.308 165.508 43.56 164.068 43.56H153.484C152.62 43.56 151.816 43.356 151.072 42.948C150.352 42.54 149.776 41.976 149.344 41.256C148.912 40.56 148.696 39.78 148.696 38.916C148.696 37.98 148.984 37.128 149.56 36.36C150.136 35.616 150.856 35.052 151.72 34.668C151.144 34.26 150.688 33.768 150.352 33.192C150.016 32.616 149.848 31.992 149.848 31.32C149.848 30.384 150.196 29.544 150.892 28.8C151.588 28.032 152.452 27.516 153.484 27.252C152.548 26.652 151.804 25.968 151.252 25.2C150.7 24.408 150.424 23.58 150.424 22.716C150.424 20.508 151.312 18.936 153.088 18C154.888 17.04 157.264 16.56 160.216 16.56C161.512 16.56 162.556 16.632 163.348 16.776C164.524 16.032 165.28 15.36 165.616 14.76C165.976 14.136 166.156 13.692 166.156 13.428H172.06ZM160.144 20.304C159.352 20.304 158.704 20.508 158.2 20.916C157.696 21.324 157.444 21.912 157.444 22.68C157.444 23.472 157.672 24.072 158.128 24.48C158.608 24.864 159.28 25.056 160.144 25.056C161.008 25.056 161.68 24.864 162.16 24.48C162.664 24.072 162.916 23.472 162.916 22.68C162.916 21.888 162.664 21.3 162.16 20.916C161.68 20.508 161.008 20.304 160.144 20.304ZM157.372 36C156.82 36 156.364 36.144 156.004 36.432C155.668 36.744 155.5 37.176 155.5 37.728C155.5 38.28 155.68 38.724 156.04 39.06C156.4 39.396 156.844 39.564 157.372 39.564H162.988C163.516 39.564 163.96 39.396 164.32 39.06C164.704 38.748 164.896 38.316 164.896 37.764C164.896 37.212 164.716 36.78 164.356 36.468C163.996 36.156 163.54 36 162.988 36H157.372Z" fill="black"/>
<line x1="179.5" y1="81" x2="179.5" y2="33" stroke="black"/>
<line x1="132" y1="80.5" x2="180" y2="80.5" stroke="black"/>
<line x1="0.5" y1="2.18557e-08" x2="0.499998" y2="48" stroke="black"/>
<line x1="48" y1="0.500004" x2="-4.37114e-08" y2="0.5" stroke="black"/>
</g>
<defs>
<clipPath id="clip0_1_2">
<rect width="180" height="81" fill="white"/>
</clipPath>
</defs>
</svg>
