<?xml version="1.0" standalone="no"?>
<!DOCTYPE svg PUBLIC "-//W3C//DTD SVG 20010904//EN"
 "http://www.w3.org/TR/2001/REC-SVG-20010904/DTD/svg10.dtd">
<svg version="1.0" xmlns="http://www.w3.org/2000/svg"
 width="1687.000000pt" height="1683.000000pt" viewBox="0 0 1687.000000 1683.000000"
 preserveAspectRatio="xMidYMid meet">

<g transform="translate(0.000000,1683.000000) scale(0.100000,-0.100000)"
fill="#000000" stroke="none">
<path d="M8130 16824 c-374 -17 -622 -40 -935 -85 -2725 -389 -5107 -2122
-6329 -4604 -489 -993 -765 -2026 -848 -3180 -26 -364 -14 -977 28 -1395 209
-2116 1232 -4089 2849 -5495 1807 -1571 4180 -2291 6577 -1994 1972 243 3815
1200 5162 2679 1189 1306 1937 2949 2135 4690 76 664 72 1383 -10 2035 -349
2784 -2069 5210 -4584 6467 -1003 502 -2057 787 -3205 868 -153 11 -712 20
-840 14z m414 -122 c3 -6 -19 -556 -23 -579 -1 -2 -71 -3 -156 -3 -116 0 -157
3 -160 13 -3 10 -35 512 -35 554 0 6 10 14 23 16 42 8 346 7 351 -1z m426 -19
c8 -8 -43 -559 -52 -569 -3 -3 -75 -1 -159 3 l-154 8 -3 290 -2 290 181 -7
c100 -4 185 -11 189 -15z m-850 -272 l0 -289 -97 -6 c-54 -4 -124 -9 -156 -12
-42 -4 -58 -2 -62 8 -7 21 -66 561 -61 565 6 6 200 20 299 22 l77 1 0 -289z
m1130 254 c78 -8 145 -17 149 -19 6 -4 -73 -565 -81 -571 -5 -4 -306 30 -311
35 -2 3 2 122 9 265 7 143 13 270 13 283 1 27 21 28 221 7z m-1560 -17 c0 -13
7 -124 15 -248 8 -124 15 -243 15 -265 l0 -41 -152 -16 c-84 -9 -156 -13 -159
-10 -5 6 -86 487 -92 547 -2 18 9 21 128 36 72 9 156 17 188 18 53 1 57 -1 57
-21z m1963 -34 c94 -14 173 -27 175 -29 4 -4 -107 -558 -113 -564 -6 -5 -299
40 -306 47 -5 5 43 541 50 570 2 4 23 2 194 -24z m-2390 -16 c15 -85 60 -539
54 -544 -8 -8 -299 -56 -304 -50 -7 7 -125 557 -121 562 3 3 199 37 359 63 4
1 9 -14 12 -31z m2821 -60 c87 -18 160 -37 162 -43 4 -10 -130 -542 -138 -551
-4 -4 -300 55 -306 61 -2 2 15 125 37 274 23 149 41 275 41 281 0 16 34 12
204 -22z m-3201 -265 c24 -153 42 -281 38 -285 -11 -12 -293 -70 -301 -61 -10
11 -154 543 -148 548 2 2 64 18 138 34 74 16 144 32 155 34 11 3 32 5 46 6
l26 1 46 -277z m3667 156 c63 -17 116 -32 118 -34 4 -3 -157 -513 -169 -536
-7 -14 -25 -11 -154 22 -81 21 -149 39 -151 41 -3 4 101 530 111 555 4 13 47
5 245 -48z m-4076 -236 c32 -148 58 -275 59 -283 2 -10 -34 -24 -133 -51 -74
-21 -142 -38 -152 -38 -13 -1 -36 57 -107 269 l-90 271 25 9 c39 15 307 89
325 89 12 1 27 -54 73 -266z m4351 157 c116 -35 255 -81 255 -86 0 -3 -169
-458 -191 -515 l-10 -26 -144 46 c-80 26 -147 50 -150 53 -4 3 26 128 64 276
39 149 71 274 71 277 0 4 8 4 18 1 9 -3 49 -15 87 -26z m-4745 -294 c39 -142
68 -261 65 -265 -8 -7 -289 -99 -293 -96 -2 2 -50 123 -107 270 -73 189 -100
268 -91 271 7 3 87 29 177 59 148 49 165 53 171 37 4 -9 39 -133 78 -276z
m5205 139 c157 -57 195 -74 195 -83 0 -9 -217 -513 -224 -520 -3 -3 -280 95
-294 104 -2 1 36 126 84 278 72 227 90 276 103 271 9 -4 70 -26 136 -50z
m-5603 -255 c48 -146 88 -268 88 -271 0 -7 -290 -123 -294 -118 -1 2 -55 121
-119 264 l-117 260 33 14 c93 40 303 119 311 117 5 -1 49 -121 98 -266z m6004
94 c71 -31 143 -62 161 -70 l32 -14 -33 -72 c-29 -64 -215 -439 -220 -445 -6
-7 -286 121 -286 130 0 26 195 527 205 527 7 0 70 -25 141 -56z m-2801 26
c1845 -118 3551 -876 4878 -2170 1225 -1193 2016 -2768 2241 -4460 50 -376 60
-545 61 -1005 0 -438 -6 -560 -46 -905 -229 -1987 -1251 -3824 -2829 -5085
-1026 -820 -2220 -1355 -3504 -1570 -468 -78 -748 -100 -1286 -99 -466 0 -613
9 -1000 60 -2029 267 -3875 1352 -5119 3009 -893 1188 -1415 2611 -1511 4110
-13 206 -13 735 0 940 113 1749 794 3368 1962 4660 1344 1486 3193 2382 5188
2514 184 12 781 13 965 1z m-3588 -280 c57 -145 102 -264 100 -265 -25 -18
-283 -123 -288 -118 -4 5 -64 119 -134 255 l-126 247 43 22 c84 43 283 129
293 126 6 -2 56 -122 112 -267z m6808 59 l162 -81 -139 -247 c-76 -135 -142
-247 -147 -249 -5 -2 -70 28 -145 65 l-135 68 95 220 c133 308 132 305 140
305 3 0 79 -36 169 -81z m-7181 -241 c58 -131 106 -241 106 -245 0 -13 -272
-145 -280 -136 -28 31 -281 486 -274 493 5 4 79 44 164 89 153 79 155 80 166
58 7 -12 60 -129 118 -259z m7479 86 c45 -25 117 -66 160 -91 l78 -45 -19 -32
c-19 -32 -283 -449 -287 -454 -3 -3 -252 135 -268 148 -7 6 241 520 251 520 1
0 40 -21 85 -46z m-7808 -355 l83 -165 -134 -78 c-75 -43 -137 -76 -139 -75
-14 17 -299 457 -302 469 -2 9 9 23 29 35 18 11 89 52 157 92 l125 73 49 -93
c27 -50 86 -167 132 -258z m8382 5 l26 -21 -158 -224 c-87 -123 -162 -228
-166 -233 -6 -7 -269 150 -269 161 0 3 32 61 70 129 39 68 102 180 140 249
l71 124 130 -82 c71 -45 141 -91 156 -103z m-8792 -115 c77 -133 141 -247 142
-253 1 -6 -56 -48 -127 -93 l-130 -82 -161 222 c-89 122 -166 227 -171 233 -6
8 41 44 144 112 84 55 155 101 158 101 3 1 69 -108 145 -240z m9020 -39 c77
-55 140 -106 140 -113 0 -19 -338 -447 -350 -443 -16 6 -240 167 -243 176 -2
4 56 102 129 216 150 238 168 264 177 264 4 0 70 -45 147 -100z m-9414 -117
c56 -87 126 -195 155 -240 l53 -82 -125 -92 c-106 -77 -128 -89 -139 -78 -50
52 -344 426 -342 434 3 10 277 214 288 215 4 0 53 -71 110 -157z m9764 -146
c75 -59 135 -112 133 -117 -2 -4 -86 -103 -187 -219 -183 -207 -185 -210 -207
-193 -183 143 -223 176 -217 186 9 15 237 337 286 404 21 29 42 52 47 50 5 -2
70 -52 145 -111z m-10050 -176 c92 -127 167 -233 167 -236 0 -7 -229 -195
-237 -195 -13 0 -385 424 -378 430 9 10 277 230 279 230 1 0 77 -103 169 -229z
m10362 -84 c158 -139 151 -129 115 -174 -17 -21 -106 -113 -199 -205 l-168
-167 -111 97 c-61 53 -111 102 -112 107 -2 13 338 445 349 445 5 0 62 -46 126
-103z m-10663 -205 c86 -106 156 -197 156 -201 0 -7 -124 -124 -197 -185 l-29
-25 -203 203 -203 203 138 125 137 126 22 -27 c12 -14 92 -113 179 -219z
m11089 -263 c-21 -21 -117 -110 -213 -198 l-174 -161 -110 107 c-61 60 -112
108 -113 109 -2 1 82 99 187 218 l191 217 135 -128 135 -127 -38 -37z m-11398
-12 l178 -199 -109 -109 c-60 -60 -112 -108 -115 -107 -4 2 -102 88 -218 193
l-211 190 132 132 c124 125 134 132 149 115 9 -9 96 -106 194 -215z m11725
-267 c0 -3 -99 -88 -220 -189 l-220 -183 -63 69 c-35 37 -83 89 -106 116 l-44
47 199 204 199 205 127 -132 c70 -73 128 -134 128 -137z m-11856 -243 c-64
-76 -178 -197 -186 -197 -12 0 -433 343 -436 355 -1 6 53 70 119 144 l122 133
203 -203 203 -203 -25 -29z m12019 52 l117 -141 -231 -173 -231 -174 -100 121
c-84 101 -98 122 -87 134 51 50 405 373 410 374 3 0 58 -63 122 -141z m-12460
-143 c109 -98 196 -182 195 -185 -2 -3 -45 -59 -97 -124 l-95 -117 -30 23
c-17 13 -122 90 -234 171 -182 133 -202 150 -189 165 7 9 60 73 117 143 88
109 106 126 119 115 9 -6 105 -92 214 -191z m12689 -143 c41 -54 91 -121 111
-149 l37 -51 -236 -157 c-130 -86 -240 -156 -244 -154 -5 2 -49 57 -98 122
l-90 120 220 183 c121 101 221 183 223 183 2 0 36 -44 77 -97z m-12985 -150
c107 -87 207 -167 221 -179 l26 -21 -93 -126 c-58 -79 -97 -124 -105 -120 -40
25 -453 297 -460 303 -10 10 194 300 211 300 3 0 93 -71 200 -157z m13273
-254 c56 -83 100 -152 98 -153 -1 -2 -113 -69 -247 -149 l-244 -146 -89 131
c-80 120 -87 132 -71 144 10 6 110 82 223 167 113 86 210 156 217 156 6 1 57
-67 113 -150z m-13463 -123 l201 -147 -81 -129 c-45 -71 -86 -129 -90 -129 -6
-1 -433 243 -485 278 -11 6 10 45 88 165 l102 157 32 -24 c17 -13 122 -90 233
-171z m13693 -238 c50 -83 90 -154 90 -157 0 -7 -490 -266 -502 -266 -4 0 -44
59 -87 131 l-79 132 237 160 c130 88 239 158 244 155 4 -2 48 -72 97 -155z
m-13947 -89 c128 -83 234 -153 236 -155 2 -2 -21 -45 -51 -96 -30 -51 -65
-112 -78 -136 -13 -23 -27 -41 -30 -40 -3 2 -119 61 -258 132 -237 122 -251
130 -240 150 36 71 174 296 181 296 4 0 112 -68 240 -151z m14162 -292 c44
-85 78 -157 75 -160 -7 -7 -506 -237 -513 -237 -8 0 -142 252 -142 268 0 17
477 302 490 292 6 -5 46 -78 90 -163z m-14376 -64 c130 -75 240 -139 244 -143
10 -8 -123 -280 -137 -280 -7 0 -392 170 -489 216 l-36 17 36 71 c61 122 134
256 140 256 3 0 112 -61 242 -137z m14546 -275 c34 -73 70 -150 79 -171 l15
-38 -32 -14 c-17 -7 -138 -56 -268 -108 l-237 -94 -62 138 c-35 76 -63 141
-62 145 0 5 484 270 500 273 2 1 32 -59 67 -131z m-14482 -227 c5 -5 -101
-266 -118 -289 -2 -2 -526 198 -534 205 -6 4 31 94 95 231 l53 114 248 -127
c137 -70 251 -131 256 -134z m14671 -207 c37 -92 64 -169 61 -173 -4 -3 -126
-47 -271 -97 -230 -79 -266 -89 -273 -75 -20 37 -113 273 -109 276 10 11 514
242 519 239 4 -2 37 -79 73 -170z m-15064 -54 c123 -55 228 -104 232 -108 6
-6 -93 -276 -107 -290 -5 -5 -526 167 -538 178 -4 4 17 72 48 151 31 79 61
156 66 171 12 31 -23 43 299 -102z m15215 -350 c31 -94 55 -173 53 -176 -7 -6
-524 -154 -540 -154 -16 0 -117 292 -103 297 6 2 125 50 265 107 140 57 258
102 261 100 3 -2 32 -80 64 -174z m-15120 -132 c4 -4 -90 -286 -97 -293 -5 -6
-519 130 -545 144 -9 4 3 52 42 170 30 90 56 170 59 177 3 8 86 -20 272 -92
147 -57 268 -105 269 -106z m15248 -269 c26 -90 46 -170 45 -178 -2 -10 -87
-34 -277 -77 -151 -35 -277 -62 -279 -59 -3 3 -24 71 -47 151 -42 145 -42 146
-21 155 56 24 512 177 521 175 6 -1 31 -77 58 -167z m-15373 -121 c0 -18 -72
-283 -78 -290 -4 -4 -43 2 -87 12 -44 10 -169 37 -277 61 -121 26 -198 47
-198 54 0 14 76 294 90 329 l9 25 271 -90 c148 -50 270 -95 270 -101z m15485
-316 c21 -89 35 -165 32 -168 -7 -7 -558 -106 -563 -101 -5 5 -72 302 -69 305
1 1 126 38 276 81 238 68 275 76 280 62 4 -9 23 -89 44 -179z m-15865 16 c146
-39 269 -74 273 -78 9 -8 -49 -289 -61 -302 -4 -4 -132 14 -285 39 -245 41
-277 48 -277 65 0 16 21 120 60 296 6 28 15 52 18 52 4 0 126 -32 272 -72z
m15943 -398 c15 -80 27 -161 29 -180 l3 -35 -282 -34 c-155 -20 -284 -33 -287
-31 -6 7 -58 302 -53 306 9 9 553 131 558 125 4 -3 18 -71 32 -151z m-16024
-10 c151 -33 276 -61 278 -63 5 -6 -44 -297 -51 -304 -6 -6 -564 52 -571 59
-2 2 10 82 26 178 16 96 29 178 29 183 0 10 -8 12 289 -53z m16074 -297 c17
-112 40 -324 35 -329 -6 -5 -478 -43 -544 -44 l-31 0 -18 155 c-10 85 -17 156
-14 158 6 5 511 95 540 96 23 1 27 -4 32 -36z m-15861 -162 c3 -3 -1 -75 -10
-158 l-16 -153 -46 0 c-25 0 -146 7 -270 15 -124 8 -233 15 -242 15 -14 0 -18
9 -18 42 0 40 28 302 35 324 3 11 552 -71 567 -85z m15917 -371 c6 -74 12
-156 13 -181 l3 -46 -155 -7 c-85 -3 -216 -6 -291 -6 l-135 0 -11 153 c-6 83
-8 155 -5 159 10 9 555 76 564 69 4 -3 12 -67 17 -141z m-16189 1 l235 -26 -2
-60 c-1 -33 -5 -104 -9 -157 l-6 -98 -290 0 -291 0 7 143 c4 78 9 163 13 189
l6 48 51 -6 c28 -3 157 -18 286 -33z m16205 -293 c2 -7 6 -93 8 -191 l5 -179
-212 6 c-116 4 -248 9 -293 12 l-83 6 0 159 0 159 38 1 c20 0 141 8 267 18
127 10 238 19 248 20 10 0 19 -5 22 -11z m-16180 -121 l190 -12 3 -157 3 -156
-53 -6 c-92 -9 -520 -26 -529 -20 -10 6 -12 296 -3 343 l7 32 96 -7 c53 -3
182 -11 286 -17z m16183 -481 c-1 -101 -6 -187 -9 -190 -6 -7 -566 38 -573 45
-2 2 -1 74 3 159 l6 155 210 5 c116 3 245 7 288 8 l79 2 -4 -184z m-15985 -85
c4 -84 5 -156 2 -159 -10 -10 -560 -61 -568 -52 -5 4 -11 89 -14 189 l-6 181
289 -2 289 -3 8 -154z m15750 -157 c119 -3 219 -10 222 -14 5 -8 -23 -361 -29
-367 -3 -4 -566 74 -571 78 -3 4 13 233 21 287 l5 32 67 -5 c37 -3 165 -8 285
-11z m-15722 -245 c9 -85 15 -156 13 -158 -6 -7 -559 -87 -566 -82 -8 7 -38
268 -38 332 0 37 2 39 33 40 17 0 142 6 277 13 135 7 250 12 255 11 6 -1 17
-71 26 -156z m15654 -169 c137 -12 251 -23 253 -25 4 -4 -35 -313 -44 -350 -5
-21 -9 -21 -286 32 -155 29 -283 55 -285 56 -3 4 35 286 42 304 2 7 17 10 37
7 18 -2 145 -13 283 -24z m-15632 -77 c8 -12 50 -304 45 -308 -7 -7 -559 -118
-563 -113 -7 7 -57 360 -51 365 2 3 128 18 278 33 150 15 276 28 280 29 4 0 9
-2 11 -6z m15557 -333 c124 -17 235 -33 248 -35 27 -7 27 -9 -17 -235 -20
-101 -31 -135 -41 -134 -29 2 -535 127 -543 134 -7 6 33 252 49 298 3 10 15
12 42 8 20 -4 138 -20 262 -36z m-15462 -212 c17 -84 29 -154 27 -156 -9 -9
-539 -143 -549 -139 -11 5 -76 299 -76 343 0 19 14 23 223 54 122 18 240 36
262 40 86 17 78 27 113 -142z m15381 -198 c145 -27 266 -52 268 -54 5 -5 -74
-333 -84 -350 -6 -10 -71 6 -277 68 -148 45 -271 86 -273 92 -2 7 9 65 25 130
17 66 33 131 36 146 4 18 11 25 23 22 10 -2 137 -26 282 -54z m-15323 -67 c4
-16 22 -84 40 -153 17 -69 31 -126 30 -127 -5 -5 -548 -174 -551 -171 -8 8
-94 352 -89 357 4 5 521 116 556 120 4 1 11 -11 14 -26z m15488 -404 c4 -5
-98 -346 -105 -354 -3 -2 -124 38 -268 90 -145 52 -265 95 -267 95 -10 0 -1
41 36 162 22 72 42 134 45 138 4 6 550 -122 559 -131z m-15346 -107 c24 -79
40 -148 36 -152 -14 -13 -525 -202 -531 -196 -14 13 -111 342 -104 349 10 10
520 145 540 143 9 -1 30 -52 59 -144z m14952 -222 c144 -43 264 -81 267 -83 2
-3 -21 -74 -51 -158 -70 -197 -67 -189 -77 -189 -7 0 -514 207 -527 215 -7 5
105 295 114 295 6 0 129 -36 274 -80z m-14822 -156 c30 -80 52 -148 49 -150
-2 -3 -121 -56 -263 -118 l-259 -113 -14 31 c-39 87 -117 312 -111 319 6 7
522 175 540 176 3 0 29 -65 58 -145z m14750 -260 c180 -64 192 -70 187 -91 -7
-31 -124 -306 -134 -316 -5 -5 -496 219 -519 238 -2 2 19 56 47 121 27 66 54
131 60 146 l10 28 78 -29 c43 -15 165 -59 271 -97z m-14599 -116 c33 -78 60
-142 58 -144 -5 -5 -507 -254 -512 -254 -3 0 -11 15 -19 33 -7 17 -39 90 -70
161 -31 71 -56 134 -56 141 0 10 496 203 526 204 6 1 39 -63 73 -141z m14356
-237 c142 -60 261 -114 263 -119 3 -9 -139 -317 -152 -329 -6 -7 -507 269
-504 277 5 13 131 280 132 280 1 0 118 -49 261 -109z m-14126 -257 c1 -7 -101
-69 -226 -139 -126 -71 -237 -134 -249 -142 -20 -13 -24 -7 -104 153 -45 91
-78 169 -74 174 5 4 124 57 264 118 l255 111 67 -132 c37 -73 67 -137 67 -143z
m13951 -120 c135 -64 248 -120 252 -123 9 -8 -167 -327 -179 -324 -10 2 -464
281 -476 292 -4 4 24 66 63 137 38 71 70 133 70 137 0 12 -16 19 270 -119z
m-13826 -100 c42 -75 76 -138 74 -139 -7 -6 -480 -305 -483 -305 -7 0 -188
321 -183 325 6 5 503 254 509 254 3 1 41 -60 83 -135z m13671 -289 c110 -60
201 -109 203 -111 4 -2 -152 -259 -178 -294 l-19 -25 -93 64 c-51 36 -157 109
-236 163 l-142 99 22 37 c13 21 49 81 82 135 l59 97 51 -28 c28 -16 141 -78
251 -137z m-13465 -56 c45 -72 78 -134 74 -138 -5 -5 -110 -79 -233 -166
l-224 -159 -21 27 c-12 14 -58 85 -103 156 l-82 130 137 77 c75 43 187 106
247 140 61 35 113 63 116 64 4 0 43 -59 89 -131z m13323 -348 c64 -40 117 -75
117 -78 0 -4 -192 -285 -206 -302 -4 -5 -454 342 -454 351 0 4 38 63 85 132
l86 125 127 -78 c70 -43 180 -110 245 -150z m-13103 19 c46 -63 83 -120 84
-126 1 -11 -426 -354 -442 -354 -11 0 -207 276 -207 292 0 14 454 307 471 305
7 -1 49 -54 94 -117z m12763 -300 c149 -102 207 -147 202 -157 -9 -25 -209
-283 -217 -280 -5 1 -105 85 -223 185 l-215 184 48 61 c27 34 70 90 96 125
l47 62 27 -18 c15 -10 121 -83 235 -162z m-12527 -14 c38 -49 77 -98 86 -111
17 -22 16 -23 -193 -206 -115 -101 -214 -185 -219 -187 -11 -4 -225 264 -225
281 0 6 103 84 230 174 178 126 232 160 240 150 7 -6 43 -52 81 -101z m12250
-298 c123 -95 224 -175 224 -178 -1 -5 -133 -161 -207 -243 l-34 -38 -207 197
c-114 109 -207 199 -207 200 0 4 198 234 202 234 3 0 106 -77 229 -172z
m-11976 -31 c51 -59 91 -109 89 -110 -3 -1 -95 -91 -205 -201 l-201 -198 -45
48 c-98 106 -199 226 -196 235 2 5 102 87 223 183 163 129 223 171 231 163 6
-7 52 -60 104 -120z m11723 -300 l197 -169 -49 -56 c-27 -32 -85 -92 -129
-135 l-79 -79 -197 207 -196 207 106 114 c105 112 106 114 128 96 12 -9 111
-93 219 -185z m-11460 15 l108 -108 -196 -212 c-108 -117 -198 -212 -199 -212
-2 0 -60 60 -130 134 l-127 134 212 186 c116 102 214 186 218 186 3 0 55 -49
114 -108z m11165 -311 l193 -184 -78 -79 c-43 -44 -103 -102 -134 -129 l-57
-49 -186 218 -186 217 112 106 c92 87 116 105 128 96 8 -7 102 -95 208 -196z
m-10884 38 c61 -56 111 -106 111 -110 0 -13 -358 -440 -366 -437 -4 2 -66 58
-137 125 l-129 122 201 200 c111 111 203 201 205 201 2 0 53 -46 115 -101z
m10600 -343 c166 -174 168 -176 148 -193 -12 -10 -73 -63 -137 -118 -64 -55
-121 -100 -125 -100 -5 0 -86 101 -180 223 -145 189 -170 226 -159 237 8 8 61
54 119 104 l105 91 30 -34 c17 -18 106 -113 199 -210z m-10350 121 c34 -29 87
-74 118 -99 l57 -46 -173 -231 -174 -232 -138 116 c-77 63 -139 119 -139 123
0 9 376 422 384 422 2 0 31 -24 65 -53z m10020 -377 c91 -107 166 -197 166
-200 -1 -7 -264 -208 -283 -215 -10 -4 -59 60 -171 222 -86 125 -158 231 -159
236 -1 4 52 49 118 101 l120 94 22 -21 c12 -12 96 -110 187 -217z m-9640 75
l114 -86 -155 -232 c-86 -128 -159 -235 -162 -239 -11 -13 -303 211 -294 225
4 7 85 106 181 220 111 134 179 207 187 203 8 -3 66 -44 129 -91z m9295 -311
c95 -124 172 -227 170 -228 -16 -14 -298 -206 -302 -206 -5 0 -295 468 -300
483 -2 10 231 175 248 176 6 1 89 -101 184 -225z m-8981 88 l131 -88 -146
-245 c-80 -134 -146 -245 -148 -247 -8 -8 -306 200 -302 211 3 9 325 451 333
456 1 1 60 -39 132 -87z m8632 -313 c84 -122 153 -228 154 -236 1 -13 -140
-109 -262 -178 l-42 -24 -14 22 c-23 38 -256 466 -258 476 -3 11 253 172 263
165 3 -2 75 -103 159 -225z m-8165 12 c0 -13 -259 -501 -266 -501 -7 0 -288
167 -306 181 -8 7 34 77 149 248 l160 239 132 -79 c72 -43 131 -83 131 -88z
m7798 -207 c71 -115 137 -223 148 -241 l20 -31 -88 -50 c-49 -27 -123 -68
-165 -91 l-78 -42 -9 23 c-5 13 -62 131 -126 263 -64 132 -113 241 -108 242 4
2 64 34 133 72 69 38 129 68 134 67 6 -1 68 -96 139 -212z m-7575 95 c73 -39
132 -74 132 -77 0 -18 -236 -512 -244 -512 -10 0 -294 147 -313 162 -8 6 31
79 135 253 80 135 148 245 152 245 3 0 65 -32 138 -71z m7226 -319 c75 -137
136 -251 136 -253 0 -8 -321 -158 -331 -155 -6 2 -59 120 -119 263 l-109 260
137 67 c75 36 140 67 143 67 4 1 68 -111 143 -249z m-6782 102 l57 -27 -99
-245 c-55 -135 -104 -255 -110 -267 -11 -26 -8 -28 -217 72 l-132 63 63 119
c34 65 95 180 135 255 l72 137 87 -41 c48 -22 113 -52 144 -66z m6406 -279
c67 -141 119 -260 115 -264 -10 -10 -285 -127 -316 -134 -21 -5 -28 10 -114
252 -51 142 -93 264 -95 271 -2 8 50 35 137 72 77 32 142 59 145 59 3 1 60
-114 128 -256z m-6123 159 c98 -41 139 -63 137 -73 -8 -34 -175 -515 -182
-522 -6 -7 -276 94 -331 124 -15 8 -2 40 104 269 67 143 123 260 126 260 4 0
69 -26 146 -58z m5733 -300 c121 -291 120 -287 95 -296 -99 -39 -326 -116
-330 -112 -6 5 -163 528 -163 541 0 8 265 112 290 114 3 0 51 -111 108 -247z
m-5353 158 c77 -26 139 -52 138 -57 -7 -32 -153 -537 -157 -540 -5 -5 -259 77
-323 103 l-32 14 107 265 c59 146 112 265 117 265 6 -1 73 -23 150 -50z m4875
-53 c0 -1 43 -121 95 -266 52 -146 93 -267 90 -269 -7 -7 -349 -110 -353 -107
-2 2 -34 128 -71 280 -60 243 -66 277 -52 283 89 36 291 91 291 79z m-4355
-109 c7 -6 -115 -540 -126 -552 -8 -9 -346 81 -354 94 -4 6 131 410 173 521
l10 26 146 -42 c80 -23 148 -44 151 -47z m4051 -273 c63 -209 78 -272 68 -278
-17 -10 -345 -89 -350 -84 -5 4 -112 561 -109 565 5 6 272 70 290 69 16 -2 31
-42 101 -272z m-3797 215 c74 -17 136 -32 138 -34 6 -5 -93 -555 -100 -563 -6
-5 -306 60 -347 75 -16 6 -11 30 52 247 37 132 73 257 79 278 8 29 14 37 27
33 9 -3 77 -19 151 -36z m3393 -310 c36 -151 64 -278 60 -281 -4 -4 -70 -18
-147 -32 -234 -44 -213 -42 -219 -16 -16 77 -74 544 -68 550 4 4 63 16 132 29
69 12 127 24 130 26 2 3 13 4 24 2 18 -3 29 -36 88 -278z m-3013 234 c80 -14
148 -28 150 -30 7 -7 -60 -557 -68 -567 -8 -8 -352 51 -362 62 -3 3 11 80 32
171 22 91 51 216 65 278 14 61 29 112 32 112 3 0 71 -12 151 -26z m2557 -61
c4 -21 28 -148 54 -283 42 -223 45 -246 30 -252 -21 -8 -350 -51 -355 -47 -7
8 -52 564 -46 571 5 5 237 43 293 47 12 1 19 -10 24 -36z m-2143 0 l137 -17 0
-35 c-1 -78 -38 -532 -44 -538 -7 -7 -355 33 -364 42 -5 4 83 522 93 553 6 16
13 15 178 -5z m1741 -35 c10 -47 77 -551 73 -554 -8 -8 -361 -34 -368 -27 -7
7 -29 563 -23 572 2 2 154 18 296 30 11 0 19 -8 22 -21z m-1316 -4 l112 -7 0
-166 c0 -91 -3 -222 -6 -291 l-7 -125 -141 8 c-196 11 -232 18 -229 42 12 110
65 533 69 544 3 10 16 12 47 7 23 -3 93 -9 155 -12z m916 -36 c12 -77 47 -540
41 -546 -4 -4 -89 -8 -190 -10 l-183 -4 5 279 c2 153 6 283 8 290 3 9 41 13
127 16 68 1 137 4 155 5 29 2 33 -1 37 -30z m-400 -40 c3 -35 8 -167 12 -295
l6 -232 -183 6 c-101 3 -187 8 -190 12 -4 3 2 116 12 251 10 135 18 262 19
283 l0 37 159 0 159 0 6 -62z"/>
<path d="M8035 15704 c-22 -2 -110 -8 -195 -14 -85 -6 -243 -22 -350 -36
-1690 -211 -3261 -1017 -4423 -2269 -1030 -1109 -1692 -2514 -1887 -4005 -70
-536 -79 -1182 -24 -1720 219 -2152 1395 -4104 3195 -5308 947 -633 1990
-1024 3119 -1171 348 -46 507 -55 945 -55 522 0 804 23 1271 104 2756 478
5023 2539 5763 5240 255 933 325 1931 201 2890 -309 2381 -1764 4450 -3905
5551 -897 461 -1854 722 -2890 789 -142 9 -717 12 -820 4z m700 -74 c1859 -93
3538 -844 4830 -2161 1275 -1299 2001 -2989 2064 -4803 74 -2140 -796 -4182
-2394 -5622 -1385 -1247 -3211 -1911 -5070 -1843 -1067 39 -2049 290 -2990
764 -978 493 -1818 1188 -2490 2060 -1271 1650 -1761 3766 -1349 5825 124 619
321 1188 616 1780 363 731 803 1337 1389 1917 569 562 1150 978 1859 1331 291
145 476 226 759 329 869 318 1857 469 2776 423z"/>
<path d="M8794 15267 c3 -23 22 -248 43 -501 20 -252 38 -455 40 -450 17 53
232 958 229 962 -5 4 -87 13 -250 26 l-68 5 6 -42z m224 -13 c23 -3 42 -11 42
-17 0 -18 -164 -687 -167 -683 -6 6 -62 700 -57 708 5 8 79 4 182 -8z"/>
<path d="M7776 15289 c-49 -5 -91 -10 -93 -12 -2 -2 50 -218 114 -480 64 -262
119 -474 121 -472 2 2 19 199 38 437 18 238 35 457 39 486 l5 52 -67 -1 c-38
-1 -108 -6 -157 -10z m157 -374 c-14 -187 -29 -343 -32 -347 -4 -4 -45 145
-91 332 -46 186 -82 341 -79 344 7 8 213 23 221 16 4 -3 -5 -158 -19 -345z"/>
<path d="M9856 14668 c-21 -269 -36 -491 -35 -493 2 -2 90 200 195 448 119
283 186 454 180 458 -6 3 -72 21 -146 38 -74 18 -140 34 -145 36 -7 2 -24
-176 -49 -487z m202 412 c50 -12 92 -26 92 -30 0 -12 -266 -640 -275 -648 -4
-4 -5 16 -1 43 3 28 15 174 26 325 25 335 26 342 48 336 9 -2 59 -14 110 -26z"/>
<path d="M6745 15113 c-77 -19 -144 -39 -149 -43 -5 -5 75 -204 184 -459 107
-248 194 -450 196 -448 5 5 -80 987 -85 986 -4 0 -69 -16 -146 -36z m147 -333
c14 -173 27 -333 27 -355 0 -33 -26 21 -139 285 -77 178 -140 328 -140 331 0
8 189 58 210 56 12 -2 20 -58 42 -317z"/>
<path d="M10950 14792 c-12 -46 -161 -654 -199 -815 -16 -65 -25 -115 -21
-110 13 14 509 808 515 824 4 11 -5 20 -32 31 -21 9 -86 36 -145 61 l-108 46
-10 -37z m147 -63 c73 -32 93 -45 88 -57 -10 -25 -360 -581 -363 -577 -8 8
161 675 171 675 5 0 52 -19 104 -41z"/>
<path d="M5682 14750 c-74 -32 -136 -60 -138 -63 -2 -2 114 -189 257 -416 144
-226 264 -410 266 -407 8 7 -232 946 -242 945 -5 0 -70 -26 -143 -59z m137
-27 c40 -151 161 -646 159 -648 -4 -4 -366 568 -370 584 -2 9 32 30 92 57 52
23 98 43 102 43 4 1 12 -16 17 -36z"/>
<path d="M11762 13878 c-106 -248 -190 -453 -189 -455 3 -3 611 685 635 719
12 16 2 25 -117 103 -71 47 -132 85 -134 85 -2 0 -90 -203 -195 -452z m311
332 c48 -30 86 -58 84 -62 -1 -5 -181 -211 -429 -492 -26 -29 -27 -29 -19 -6
5 14 59 144 121 290 62 146 119 280 127 298 8 18 17 32 21 30 5 -2 47 -28 95
-58z"/>
<path d="M4707 14227 c-70 -45 -126 -87 -125 -94 3 -13 641 -733 646 -728 4 3
-377 887 -386 897 -4 4 -65 -30 -135 -75z m243 -264 c164 -385 155 -361 137
-343 -44 45 -447 503 -447 509 0 6 171 121 181 121 3 0 61 -129 129 -287z"/>
<path d="M12596 13269 c-142 -226 -257 -412 -255 -414 2 -2 172 135 377 303
l374 307 -84 79 c-45 43 -99 91 -119 106 l-35 29 -258 -410z m428 202 c3 -6
-514 -435 -519 -429 -1 2 79 132 178 290 l181 287 78 -71 c43 -39 80 -73 82
-77z"/>
<path d="M8220 13664 c-198 -13 -354 -28 -480 -45 -1096 -152 -2099 -658
-2911 -1469 -408 -408 -739 -859 -987 -1347 l-77 -153 -1092 -2 -1092 -3 714
-1139 c551 -878 712 -1142 705 -1155 -5 -9 -326 -513 -714 -1121 l-704 -1105
1138 -3 1138 -2 48 -88 c360 -665 873 -1261 1468 -1704 689 -514 1520 -856
2376 -977 287 -41 369 -46 745 -46 404 1 508 9 855 66 780 129 1553 467 2225
972 595 447 1114 1037 1467 1669 l60 108 1063 2 1064 3 -718 1129 -719 1129
52 81 c29 45 358 547 731 1116 373 569 680 1045 683 1058 l4 22 -1029 0 -1028
0 -64 128 c-403 811 -1019 1509 -1771 2007 -720 477 -1538 764 -2425 850 -153
15 -609 27 -725 19z m601 -44 c1446 -111 2726 -765 3639 -1860 234 -281 473
-646 638 -976 l61 -121 -871 -6 c-995 -8 -2892 -9 -2899 -2 -3 2 12 71 32 152
74 297 102 519 102 818 1 414 -71 740 -224 1020 -182 332 -439 513 -804 565
-106 15 -379 12 -512 -5 -556 -73 -1155 -345 -1678 -762 -143 -114 -392 -358
-514 -503 -239 -285 -470 -653 -672 -1070 -50 -102 -94 -192 -98 -200 -7 -13
-86 -15 -605 -18 -421 -1 -596 1 -596 9 0 21 131 267 227 427 865 1434 2349
2386 3933 2522 69 5 141 12 160 14 86 8 559 5 681 -4z m-239 -488 c192 -45
331 -122 464 -256 376 -377 513 -1091 358 -1866 -96 -482 -333 -1054 -609
-1475 -407 -619 -1059 -1239 -1650 -1570 -274 -153 -524 -247 -795 -297 -162
-30 -412 -30 -557 1 -254 53 -465 165 -649 343 -275 266 -408 607 -421 1078
-10 375 64 778 222 1215 202 558 576 1221 905 1605 562 656 1376 1126 2140
1235 144 21 479 13 592 -13z m-3592 -2524 c0 -7 -25 -76 -55 -152 -184 -464
-275 -899 -275 -1312 0 -385 85 -704 256 -964 195 -297 504 -501 861 -570 602
-116 1325 146 2018 730 75 63 147 124 160 134 21 17 41 19 192 18 191 -1 359
-23 548 -71 144 -36 570 -179 748 -250 333 -133 548 -275 615 -407 67 -132
119 -360 108 -474 -12 -121 -48 -201 -124 -274 -38 -36 -42 -38 -73 -27 -19 7
-108 11 -226 11 -153 0 -215 4 -291 19 -187 38 -359 53 -677 58 -331 6 -522
-4 -756 -37 -245 -36 -437 -96 -500 -156 -26 -24 -31 -25 -425 -54 -219 -16
-400 -29 -401 -29 -2 -1 -3 -145 -3 -321 l0 -320 -2519 0 -2519 0 699 1097
c384 603 699 1102 699 1109 0 7 -314 514 -698 1126 l-699 1113 771 5 c1727 11
2566 11 2566 -2z m10210 6 c0 -3 -325 -501 -722 -1107 -397 -606 -722 -1111
-722 -1122 0 -11 315 -516 701 -1122 l701 -1103 -1924 0 -1924 0 0 208 0 207
-205 59 c-165 47 -441 139 -452 150 -2 1 9 47 24 102 25 92 27 113 27 309 0
196 -2 218 -28 329 -40 170 -87 300 -171 471 -85 173 -177 318 -244 381 -25
24 -73 70 -106 101 -33 32 -160 182 -281 333 -122 151 -262 318 -311 371 -100
108 -145 185 -217 371 -43 111 -116 345 -151 483 l-18 71 56 134 c30 74 74
190 98 258 l41 122 2914 0 c1603 0 2914 -3 2914 -6z m-6009 -794 c92 -319 186
-533 275 -629 47 -51 70 -101 46 -101 -12 0 -85 78 -145 158 -109 142 -217
361 -272 549 l-24 85 31 61 c36 73 29 83 89 -123z m-127 -130 c39 -122 155
-350 231 -455 35 -49 98 -124 140 -167 l75 -76 -11 -51 -11 -51 -46 40 c-122
106 -364 417 -500 641 l-22 37 52 91 c29 50 55 88 58 83 4 -4 19 -45 34 -92z
m-109 -258 c157 -241 377 -509 474 -576 l40 -28 -20 -39 c-10 -21 -22 -39 -25
-39 -10 0 -685 583 -682 589 10 20 134 201 138 200 3 0 36 -48 75 -107z m93
-451 l343 -295 -38 -38 -37 -38 -31 29 c-78 75 -415 256 -681 366 l-92 38 80
100 c44 56 85 109 92 119 6 10 13 17 17 16 3 -2 159 -135 347 -297z m573 37
c19 -24 118 -146 220 -273 101 -126 217 -264 256 -306 123 -129 146 -263 60
-347 -43 -42 -110 -62 -204 -62 -62 0 -80 4 -116 27 -113 72 -334 165 -646
273 l-194 67 74 18 c91 23 229 91 291 145 106 92 191 269 205 425 3 41 9 75
12 75 4 0 23 -19 42 -42z m-949 -114 c286 -126 486 -237 562 -309 l28 -28 -38
-23 c-22 -13 -42 -24 -46 -24 -4 0 -38 21 -74 46 -86 58 -139 85 -248 123
-123 44 -265 78 -413 101 -69 10 -127 21 -129 23 -5 4 149 177 158 177 3 0 94
-39 200 -86z m-247 -174 c152 -24 235 -44 355 -82 132 -42 327 -144 310 -161
-3 -3 -33 -11 -67 -18 -59 -12 -65 -12 -102 9 -133 75 -417 141 -681 158
l-101 7 53 54 c61 62 59 62 233 33z m-85 -166 c150 -16 285 -42 375 -73 33
-12 49 -19 35 -16 -14 3 -79 16 -145 30 -163 33 -272 45 -425 48 -72 1 -130 4
-130 6 0 2 7 9 16 15 18 14 78 12 274 -10z m2005 -409 c121 -192 228 -452 277
-670 18 -83 22 -132 23 -285 0 -161 -3 -197 -23 -275 -13 -50 -27 -96 -31
-103 -6 -10 -65 8 -244 74 l-236 87 35 51 c92 136 106 338 38 574 -38 135 -85
225 -154 296 l-60 63 61 6 c154 14 251 119 236 255 -6 56 2 48 78 -73z m-1298
-1146 c369 -30 663 -100 732 -173 21 -22 17 -22 -406 25 -440 49 -442 49 -443
9 0 -8 -3 -32 -6 -52 -6 -37 -6 -38 24 -38 26 0 31 5 37 31 7 30 9 31 49 26
22 -3 195 -22 383 -43 265 -29 340 -40 332 -50 -5 -6 -42 -24 -82 -39 -233
-86 -656 -133 -1107 -122 -437 11 -753 60 -928 143 -85 41 -107 71 -77 104 68
75 375 150 730 179 150 12 616 12 762 0z m1461 -266 c541 -180 592 -198 547
-201 -27 -2 -774 -36 -1660 -76 l-1609 -73 -412 181 c-227 99 -411 182 -410
184 2 1 97 9 212 17 115 8 228 16 252 19 40 3 44 2 56 -28 17 -41 38 -58 113
-95 290 -144 1138 -195 1752 -105 221 32 421 97 475 153 l26 27 142 -16 c113
-12 143 -18 146 -30 2 -13 -14 -18 -74 -27 -86 -12 -110 -32 -85 -71 12 -20
145 -35 253 -28 120 7 148 17 148 50 0 33 -21 43 -108 51 l-72 8 0 43 0 43
-52 6 c-29 3 -102 11 -162 18 l-110 12 -20 38 c-12 21 -41 51 -66 68 l-45 29
83 0 c82 0 96 -4 680 -197z m-2819 -377 l54 -23 -2 -219 c-4 -496 -31 -1927
-35 -1932 -10 -9 -740 247 -867 305 l-76 34 -7 82 c-3 45 -6 551 -6 1123 l0
1042 443 -195 c243 -107 466 -205 496 -217z m3561 -849 l0 -972 -1736 -184
c-954 -100 -1737 -181 -1739 -179 -7 7 30 2137 38 2144 6 6 3131 156 3390 163
l47 1 0 -973z m-4558 -201 c3 -766 4 -805 22 -824 32 -36 304 -140 781 -300
l240 -80 1785 189 c982 104 1786 189 1788 189 1 0 2 367 2 815 l0 815 870 0
c479 0 870 -3 870 -6 0 -14 -136 -243 -218 -369 -761 -1167 -1977 -2018 -3282
-2299 -358 -77 -674 -109 -1060 -110 -809 0 -1554 174 -2285 534 -822 404
-1502 1001 -2013 1767 -106 159 -282 457 -282 476 0 4 625 7 1389 7 l1390 0 3
-804z"/>
<path d="M8003 12690 c-1165 -134 -2444 -1572 -2699 -3035 -32 -186 -44 -514
-24 -683 22 -193 86 -407 162 -542 441 -784 1547 -661 2522 280 851 822 1368
2041 1251 2947 -72 554 -363 915 -816 1014 -102 22 -291 31 -396 19z m267 -60
c115 -14 218 -44 318 -90 75 -36 84 -42 79 -62 -19 -75 -48 -331 -57 -500 -30
-539 60 -1113 250 -1590 l60 -153 -36 -85 c-40 -92 -147 -310 -171 -346 -14
-23 -16 -21 -92 74 -758 957 -1246 1821 -1326 2352 -22 142 -22 144 28 173 71
42 242 114 355 151 232 74 414 97 592 76z m517 -222 c114 -101 220 -252 273
-391 l31 -78 -35 -87 c-120 -300 -141 -763 -63 -1402 3 -24 -34 -123 -43 -113
-11 12 -94 235 -123 333 -165 550 -205 1144 -116 1708 7 39 15 72 20 72 5 0
30 -19 56 -42z m-1562 -130 c59 -536 513 -1373 1283 -2362 l155 -199 -17 -31
c-9 -17 -31 -55 -49 -83 l-33 -53 -229 197 c-394 336 -707 622 -1102 1004
-246 238 -655 656 -796 812 l-70 78 169 167 c93 92 223 211 289 264 113 91
368 268 385 268 4 0 11 -28 15 -62z m1920 -564 c35 -191 30 -496 -11 -739 -26
-155 -86 -392 -94 -370 -15 41 -32 318 -31 520 0 276 25 469 83 644 25 77 31
70 53 -55z m-2499 -469 c526 -550 1223 -1199 1841 -1715 41 -34 42 -36 25 -57
l-17 -21 -250 159 c-664 424 -1477 909 -2142 1278 -112 62 -203 115 -203 117
0 22 267 394 374 519 l51 61 65 -71 c36 -38 151 -160 256 -270z m-201 -623
c522 -298 1143 -671 1630 -980 143 -91 288 -183 322 -205 l63 -39 -18 -30
c-39 -66 -33 -66 -219 21 -907 424 -1865 737 -2607 851 -38 6 -73 13 -77 16
-17 10 136 353 248 555 l75 137 181 -100 c100 -55 281 -156 402 -226z m-755
-457 c542 -95 1209 -293 1840 -545 324 -129 820 -353 820 -370 0 -4 -8 -18
-19 -31 l-18 -23 -189 42 c-1016 226 -1970 338 -2569 303 -109 -6 -200 -9
-203 -6 -19 19 114 575 155 648 6 11 27 9 183 -18z m545 -695 c500 -36 1133
-132 1755 -266 140 -30 261 -57 268 -59 9 -3 -2 -23 -33 -60 l-47 -55 -457 0
c-882 0 -1567 -40 -1980 -116 -144 -26 -297 -66 -342 -89 -34 -18 -33 -20 -54
125 -19 124 -18 491 0 509 28 28 555 34 890 11z m1837 -557 c-80 -93 -73 -89
-222 -102 -1038 -91 -1829 -274 -2147 -496 -36 -25 -69 -43 -73 -38 -38 40
-118 160 -149 222 -41 80 -91 212 -91 237 0 51 360 131 780 173 424 43 779 57
1463 59 l489 2 -50 -57z m-162 -166 c0 -2 -22 -22 -49 -45 -47 -40 -50 -41
-207 -67 -481 -78 -848 -198 -1093 -358 -99 -65 -209 -177 -241 -246 l-25 -54
-75 6 c-154 12 -347 89 -475 189 -30 23 -55 46 -55 50 0 14 93 71 203 123 377
181 957 304 1877 398 51 5 140 8 140 4z m-195 -175 c-205 -182 -610 -419 -864
-507 -177 -60 -481 -112 -481 -81 0 22 84 127 132 167 209 172 519 296 976
389 187 39 254 47 237 32z"/>
<path d="M8660 6815 l0 -75 30 0 30 0 0 75 0 75 -30 0 -30 0 0 -75z"/>
<path d="M3823 13548 c-62 -55 -110 -105 -107 -109 8 -14 745 -611 748 -607 5
5 -511 812 -521 815 -4 1 -59 -43 -120 -99z m300 -248 c97 -151 174 -276 172
-278 -3 -3 -472 374 -512 412 -10 8 6 28 69 84 44 41 84 70 88 65 5 -4 87
-132 183 -283z"/>
<path d="M13317 12529 c-175 -198 -317 -362 -315 -364 2 -2 188 104 413 236
254 148 410 244 409 253 -1 14 -174 235 -184 236 -3 0 -148 -163 -323 -361z
m387 220 c37 -45 65 -86 64 -90 -3 -9 -569 -341 -574 -337 -1 2 436 505 442
507 1 1 32 -36 68 -80z"/>
<path d="M3065 12741 c-54 -67 -96 -123 -94 -125 14 -12 831 -477 833 -475 3
4 -564 644 -618 698 l-24 23 -97 -121z m251 -108 c82 -92 185 -208 229 -257
44 -50 76 -87 70 -84 -61 34 -581 332 -584 334 -3 3 129 174 134 174 1 0 69
-75 151 -167z"/>
<path d="M13916 11689 c-202 -166 -365 -303 -363 -305 4 -5 868 324 879 334 6
6 -125 248 -143 267 -3 2 -171 -131 -373 -296z m439 103 c15 -28 26 -54 24
-55 -4 -3 -387 -150 -554 -212 -38 -15 -65 -22 -60 -16 6 6 123 103 260 215
l250 205 26 -42 c14 -23 38 -66 54 -95z"/>
<path d="M2442 11819 c-41 -72 -72 -131 -70 -133 9 -6 891 -336 894 -334 4 5
-725 593 -738 595 -7 2 -45 -53 -86 -128z m451 -213 c86 -70 157 -129 157
-132 0 -2 -15 2 -32 9 -18 7 -158 60 -310 118 -153 57 -278 107 -278 110 0 4
23 48 52 97 l51 91 101 -83 c56 -45 172 -139 259 -210z"/>
<path d="M13786 5861 c17 -16 743 -511 758 -517 11 -4 30 26 71 113 31 65 57
126 58 136 2 17 -56 36 -443 148 -245 71 -447 129 -449 129 -3 0 -1 -4 5 -9z
m841 -275 c6 -6 -81 -186 -90 -186 -8 0 -537 359 -537 364 0 4 623 -174 627
-178z"/>
<path d="M2602 5710 c-239 -71 -436 -130 -439 -133 -7 -7 118 -267 129 -267 6
0 741 504 767 526 13 11 -65 -10 -457 -126z m57 -101 c-96 -67 -215 -150 -265
-184 l-90 -63 -47 94 c-42 85 -45 95 -30 101 42 17 570 171 587 172 11 1 -59
-53 -155 -120z"/>
<path d="M13422 4922 c469 -450 558 -533 567 -528 5 4 46 60 91 126 l81 120
-73 34 c-40 18 -232 108 -426 200 -194 91 -355 166 -357 166 -3 0 50 -53 117
-118z m349 -143 c140 -66 271 -128 292 -137 l37 -17 -56 -85 c-31 -47 -58 -87
-60 -89 -2 -2 -74 63 -160 145 -85 82 -192 184 -237 226 -45 42 -79 77 -76 78
3 0 120 -54 260 -121z"/>
<path d="M3120 4819 c-228 -110 -418 -203 -422 -207 -7 -7 63 -118 139 -220
l25 -33 136 130 c196 186 548 530 542 530 -3 0 -192 -90 -420 -200z m29 -127
c-101 -98 -206 -198 -234 -224 l-50 -46 -59 85 c-32 46 -56 86 -53 89 8 8 562
273 571 274 5 0 -73 -80 -175 -178z"/>
<path d="M12706 4289 c6 -8 136 -180 289 -383 l278 -369 103 109 c57 60 103
112 104 116 0 5 -720 504 -770 533 -12 7 -13 6 -4 -6z m394 -309 c91 -62 200
-138 243 -167 l78 -55 -72 -79 -71 -79 -169 223 c-93 122 -183 242 -201 267
l-33 45 30 -21 c17 -11 104 -72 195 -134z"/>
<path d="M3757 4013 c-213 -148 -387 -271 -387 -274 0 -10 207 -224 212 -219
3 3 128 169 278 370 150 201 277 371 283 378 5 6 7 12 5 12 -3 0 -179 -120
-391 -267z m186 59 c-15 -21 -104 -141 -198 -265 l-170 -227 -67 67 c-37 38
-68 73 -70 80 -2 8 511 379 530 382 2 1 -9 -16 -25 -37z"/>
<path d="M11997 3645 c6 -11 106 -201 223 -423 147 -280 216 -400 224 -394 6
5 49 37 96 72 47 35 97 74 112 86 l27 22 -327 314 c-180 172 -336 320 -346
328 -18 14 -19 14 -9 -5z m421 -444 c106 -101 191 -188 190 -192 -3 -10 -160
-131 -163 -127 -3 3 -260 488 -290 548 l-18 35 44 -39 c24 -22 131 -123 237
-225z"/>
<path d="M4520 3323 c-184 -179 -336 -328 -338 -333 -2 -5 51 -49 117 -99 120
-91 121 -91 134 -69 30 48 429 820 425 822 -1 2 -154 -143 -338 -321z m104
-50 c-47 -93 -116 -223 -151 -291 l-65 -123 -37 27 c-105 79 -130 100 -128
106 2 8 458 448 464 448 3 0 -35 -75 -83 -167z"/>
<path d="M11331 2705 c84 -247 154 -452 156 -455 5 -5 273 132 273 139 0 6
-539 722 -562 746 -12 13 34 -136 133 -430z m173 -40 c171 -227 194 -262 179
-272 -8 -7 -51 -31 -94 -53 -57 -30 -80 -38 -84 -28 -39 109 -205 605 -205
612 0 13 -14 31 204 -259z"/>
<path d="M5381 2758 c-270 -361 -283 -381 -265 -395 10 -8 72 -41 137 -74 82
-41 119 -56 122 -47 19 52 293 893 292 894 -1 1 -130 -169 -286 -378z m93 -90
c-46 -139 -93 -283 -105 -320 l-20 -68 -87 47 c-48 25 -91 50 -96 54 -7 6 378
539 390 539 1 0 -36 -114 -82 -252z"/>
<path d="M6330 2354 c-118 -227 -216 -420 -218 -428 -2 -10 37 -27 138 -61 78
-26 143 -45 145 -43 4 4 156 941 152 944 -1 1 -99 -185 -217 -412z m144 169
c-2 -10 -27 -159 -54 -332 -28 -173 -52 -316 -54 -319 -4 -3 -195 56 -204 63
-4 3 308 605 313 605 2 0 1 -8 -1 -17z"/>
<path d="M10310 2752 c0 -20 150 -916 155 -920 7 -7 285 89 285 99 0 9 -388
751 -421 804 -10 17 -19 24 -19 17z m384 -804 c-6 -9 -194 -71 -200 -65 -5 4
-114 639 -114 662 0 6 72 -125 159 -290 87 -165 157 -303 155 -307z"/>
<path d="M7326 2093 c-82 -247 -149 -452 -150 -458 -1 -9 291 -61 300 -53 2 3
3 219 2 482 l-3 477 -149 -448z m111 -469 c-8 -8 -212 32 -211 41 1 6 48 151
105 323 l104 313 3 -337 c1 -185 1 -339 -1 -340z"/>
<path d="M9380 2056 l0 -476 23 4 c12 3 81 15 154 27 l131 22 -150 446 c-82
245 -152 448 -154 450 -2 2 -4 -210 -4 -473z m153 -77 l105 -317 -57 -11 c-31
-5 -80 -13 -108 -17 l-53 -7 0 199 c0 110 -3 264 -6 344 -4 97 -3 142 3 135 6
-5 58 -152 116 -326z"/>
<path d="M8351 1994 c-40 -255 -71 -468 -67 -471 9 -9 284 -8 293 0 6 6 -131
869 -145 914 -4 14 -36 -157 -81 -443z m138 -116 c28 -169 51 -312 51 -318 0
-6 -41 -10 -111 -10 l-112 0 7 38 c3 20 27 171 53 336 29 181 50 291 55 280 4
-11 30 -157 57 -326z"/>
</g>
</svg>
